<svg width="441" height="86" viewBox="0 0 441 86" fill="none" xmlns="http://www.w3.org/2000/svg">
<g clip-path="url(#clip0_2014_660)">
<path d="M133.878 24.1367V46.7658H105.572V24.1367H94.2499V46.7658V58.0804V80.7095H105.572V58.0804H133.878V80.7095H145.201V24.1367H133.878Z" fill="white"/>
<path d="M406.089 24.1367V46.7658H377.783V24.1367H366.461V46.7658V58.0804V80.7095H377.783V58.0804H406.089V80.7095H417.412V58.0804V46.7658V24.1367H406.089Z" fill="white"/>
<path d="M168.789 24.1367H157.467V80.7095H168.789V24.1367Z" fill="white"/>
<path d="M441 24.1367H429.678V80.7095H441V24.1367Z" fill="white"/>
<path d="M292.393 27.9082V24.1367C263.775 24.1367 240.498 47.3975 240.498 75.9951V80.7095H251.821V75.9951C251.821 73.751 252.009 71.5447 252.368 69.3949H281.07V80.7095H292.393V27.9082ZM256.01 58.0804C261.011 47.9916 270.078 40.2694 281.07 37.073V58.0804H256.01Z" fill="white"/>
<path d="M354.195 35.4513V24.1367H303.244V48.1424C303.244 66.1043 317.868 80.7095 335.833 80.7095H354.195V69.3949H335.833C324.105 69.3949 314.566 59.8624 314.566 48.1424V35.4513H354.195Z" fill="white"/>
<mask id="mask0_2014_660" style="mask-type:luminance" maskUnits="userSpaceOnUse" x="0" y="0" width="67" height="86">
<path d="M66.0948 0H0V86H66.0948V0Z" fill="white"/>
</mask>
<g mask="url(#mask0_2014_660)">
<path d="M43.3555 48.7471C41.6572 50.0766 39.4587 50.7083 37.2509 50.7083C31.5896 50.7083 26.3813 46.2485 26.8436 40.3932C26.8436 38.5829 27.4381 36.9234 28.2589 35.4525V35.4337C41.5156 14.1906 28.3439 0.226562 28.3439 0.226562C28.3439 0.226562 50.8472 14.3415 44.7992 43.8913C44.3746 45.7205 43.95 47.2479 43.4122 48.634L43.3555 48.7471Z" fill="url(#paint0_linear_2014_660)"/>
<path d="M23.6641 78.0347C10.1432 63.4672 26.7305 37.7549 28.6837 34.7471C27.5986 36.3783 26.9664 38.33 26.9664 40.4327C26.9664 46.1088 31.5709 50.71 37.251 50.71C39.4683 50.71 41.5252 50.0123 43.1953 48.8243C51.9324 43.1199 53.8667 27.4492 53.8667 27.4492L54.1969 27.7038C61.6131 33.7382 65.9534 42.4881 66.01 52.8692C66.0666 62.1472 61.632 71.1517 55.4518 77.139C55.4518 77.139 37.2321 93.4225 23.6546 78.0441L23.6641 78.0347Z" fill="url(#paint1_linear_2014_660)"/>
<path d="M55.3575 77.211C51.8381 80.1339 36.1848 91.6936 23.6829 78.069C11.1905 64.4539 24.8246 41.0233 27.9949 35.7903L28.1459 35.5641C41.9215 14.1607 28.3346 0.234375 28.3346 0.234375C28.3346 0.234375 30.6274 11.5678 12.2473 27.4176C11.483 28.0399 10.747 28.6905 10.0394 29.3788C3.89695 35.3755 0.0756226 43.7294 0.0756226 52.9885C0.0756226 71.1766 14.8325 85.9232 33.0334 85.9232C41.6384 85.9232 49.4698 82.6326 55.3386 77.2299L55.3575 77.211Z" fill="url(#paint2_linear_2014_660)"/>
<path d="M55.3575 77.211C51.8381 80.1339 36.1848 91.6936 23.6829 78.069C11.1905 64.4539 24.8246 41.0233 27.9949 35.7903L28.1459 35.5641C41.9215 14.1607 28.3346 0.234375 28.3346 0.234375C28.3346 0.234375 30.6274 11.5678 12.2473 27.4176C11.483 28.0399 10.747 28.6905 10.0394 29.3788C3.89695 35.3755 0.0756226 43.7294 0.0756226 52.9885C0.0756226 71.1766 14.8325 85.9232 33.0334 85.9232C41.6384 85.9232 49.4698 82.6326 55.3386 77.2299L55.3575 77.211Z" fill="url(#paint3_linear_2014_660)"/>
</g>
<path d="M232.006 46.7658V33.5655C232.006 28.3608 227.779 24.1367 222.571 24.1367H181.055V35.4513V69.3949V80.7095H222.571C227.779 80.7095 232.006 76.4854 232.006 71.2807V59.0232C232.006 56.0343 230.261 53.4603 227.741 52.2439C230.185 51.6216 232.006 49.4059 232.006 46.7658ZM192.378 35.4513H218.797C219.835 35.4513 220.684 36.2999 220.684 37.337V44.8801C220.684 45.9172 219.835 46.7658 218.797 46.7658H192.378V35.4513ZM192.378 69.3949V58.0804H218.797C219.835 58.0804 220.684 58.929 220.684 59.9661V67.5092C220.684 68.5463 219.835 69.3949 218.797 69.3949H192.378Z" fill="white"/>
</g>
<defs>
<linearGradient id="paint0_linear_2014_660" x1="49.1206" y1="38.6017" x2="22.9217" y2="19.5571" gradientUnits="userSpaceOnUse">
<stop stop-color="#FFA205"/>
<stop offset="0.96" stop-color="#FFE600"/>
</linearGradient>
<linearGradient id="paint1_linear_2014_660" x1="42.6575" y1="84.3143" x2="41.4703" y2="14.56" gradientUnits="userSpaceOnUse">
<stop stop-color="#FE344A"/>
<stop offset="1" stop-color="#FEDC3C"/>
</linearGradient>
<linearGradient id="paint2_linear_2014_660" x1="34.1751" y1="89.9493" x2="10.4192" y2="6.92004" gradientUnits="userSpaceOnUse">
<stop offset="0.08" stop-color="#4E08BF"/>
<stop offset="0.27" stop-color="#B10C92"/>
<stop offset="0.45" stop-color="#E40E6B"/>
<stop offset="0.98" stop-color="#FFE171"/>
</linearGradient>
<linearGradient id="paint3_linear_2014_660" x1="52.7533" y1="13.3781" x2="28.4932" y2="59.6214" gradientUnits="userSpaceOnUse">
<stop stop-color="#FFDC01"/>
<stop offset="1" stop-color="#FFE171" stop-opacity="0"/>
</linearGradient>
<clipPath id="clip0_2014_660">
<rect width="441" height="86" fill="white"/>
</clipPath>
</defs>
</svg>
