<svg width="212" height="274" viewBox="0 0 212 274" fill="none" xmlns="http://www.w3.org/2000/svg">
<mask id="mask0_2014_712" style="mask-type:luminance" maskUnits="userSpaceOnUse" x="0" y="0" width="212" height="274">
<path d="M211.338 0H0.756836V274H211.338V0Z" fill="white"/>
</mask>
<g mask="url(#mask0_2014_712)">
<path d="M138.889 155.311C133.478 159.547 126.474 161.56 119.44 161.56C101.403 161.56 84.8086 147.351 86.2817 128.695C86.2817 122.928 88.1755 117.641 90.7909 112.954V112.894C133.027 45.2127 91.0614 0.722656 91.0614 0.722656C91.0614 0.722656 162.758 45.6934 143.489 139.841C142.136 145.668 140.783 150.535 139.07 154.951L138.889 155.311Z" fill="url(#paint0_linear_2014_712)"/>
<path d="M76.1525 248.617C33.0743 202.204 85.9225 120.284 92.1452 110.701C88.6881 115.898 86.674 122.116 86.674 128.815C86.674 146.9 101.344 161.559 119.441 161.559C126.506 161.559 133.059 159.336 138.38 155.551C166.217 137.377 172.379 87.4492 172.379 87.4492L173.432 88.2603C197.06 107.486 210.888 135.364 211.069 168.439C211.249 197.999 197.12 226.687 177.43 245.763C177.43 245.763 119.381 297.643 76.1224 248.647L76.1525 248.617Z" fill="url(#paint1_linear_2014_712)"/>
<path d="M177.129 246.001C165.916 255.314 116.044 292.143 76.212 248.735C36.4105 205.356 79.8495 130.705 89.9502 114.033L90.4311 113.312C134.321 45.1199 91.0324 0.75 91.0324 0.75C91.0324 0.75 98.3373 36.8588 39.7774 87.357C37.3425 89.3396 34.9977 91.4124 32.743 93.6054C13.173 112.711 0.998047 139.327 0.998047 168.827C0.998047 226.775 48.0143 273.759 106.003 273.759C133.419 273.759 158.37 263.275 177.069 246.061L177.129 246.001Z" fill="url(#paint2_linear_2014_712)"/>
<path d="M177.129 246.001C165.916 255.314 116.044 292.143 76.212 248.735C36.4105 205.356 79.8495 130.705 89.9502 114.033L90.4311 113.312C134.321 45.1199 91.0324 0.75 91.0324 0.75C91.0324 0.75 98.3373 36.8588 39.7774 87.357C37.3425 89.3396 34.9977 91.4124 32.743 93.6054C13.173 112.711 0.998047 139.327 0.998047 168.827C0.998047 226.775 48.0143 273.759 106.003 273.759C133.419 273.759 158.37 263.275 177.069 246.061L177.129 246.001Z" fill="url(#paint3_linear_2014_712)"/>
</g>
<defs>
<linearGradient id="paint0_linear_2014_712" x1="157.257" y1="122.988" x2="73.7863" y2="62.3105" gradientUnits="userSpaceOnUse">
<stop stop-color="#FFA205"/>
<stop offset="0.96" stop-color="#FFE600"/>
</linearGradient>
<linearGradient id="paint1_linear_2014_712" x1="136.666" y1="268.624" x2="132.884" y2="46.3837" gradientUnits="userSpaceOnUse">
<stop stop-color="#FE344A"/>
<stop offset="1" stop-color="#FEDC3C"/>
</linearGradient>
<linearGradient id="paint2_linear_2014_712" x1="109.64" y1="286.586" x2="33.953" y2="22.0508" gradientUnits="userSpaceOnUse">
<stop offset="0.08" stop-color="#4E08BF"/>
<stop offset="0.27" stop-color="#B10C92"/>
<stop offset="0.45" stop-color="#E40E6B"/>
<stop offset="0.98" stop-color="#FFE171"/>
</linearGradient>
<linearGradient id="paint3_linear_2014_712" x1="168.832" y1="42.6266" x2="91.5379" y2="189.96" gradientUnits="userSpaceOnUse">
<stop stop-color="#FFDC01"/>
<stop offset="1" stop-color="#FFE171" stop-opacity="0"/>
</linearGradient>
</defs>
</svg>
